<svg xmlns="http://www.w3.org/2000/svg" xmlns:xlink="http://www.w3.org/1999/xlink" width="1440" height="560" preserveAspectRatio="none" viewBox="0 0 1440 560"><g mask="url(&quot;#a&quot;)" fill="none"><path fill="url(&quot;#b&quot;)" d="M0 0h1440v560H0z"/><use xlink:href="#c"/><use xlink:href="#c" x="720"/></g><defs><path d="M-1 0a1 1 0 1 0 2 0 1 1 0 1 0-2 0" id="d"/><path d="M-3 0a3 3 0 1 0 6 0 3 3 0 1 0-6 0" id="h"/><path d="M-5 0A5 5 0 1 0 5 0 5 5 0 1 0-5 0" id="g"/><path d="m2-2-4 4z" id="e"/><path d="M6-6-6 6z" id="f"/><path d="m30-30-60 60z" id="i"/><radialGradient cx="100%" cy="100%" r="1545.06" gradientUnits="userSpaceOnUse" id="b"><stop stop-color="#0e2a47" offset="0"/><stop stop-color="rgba(1, 8, 18, 1)" offset="0"/><stop stop-color="rgba(66, 77, 91, 1)" offset=".19"/><stop stop-color="rgba(1, 8, 18, 1)" offset=".63"/></radialGradient><mask id="a"><path fill="#fff" d="M0 0h1440v560H0z"/></mask></defs><symbol id="c"><use xlink:href="#d" x="30" y="30" stroke="rgba(237, 15, 106, 1)"/><use xlink:href="#e" x="30" y="90" stroke="rgba(237, 15, 106, 1)"/><use xlink:href="#f" x="30" y="150" stroke="rgba(227, 3, 137, 1)"/><use xlink:href="#e" x="30" y="210" stroke="rgba(227, 3, 137, 1)"/><use xlink:href="#d" x="30" y="270" stroke="rgba(227, 3, 137, 1)"/><use xlink:href="#d" x="30" y="330" stroke="rgba(227, 3, 137, 1)"/><use xlink:href="#e" x="30" y="390" stroke="#1c538e"/><use xlink:href="#f" x="30" y="450" stroke="#1c538e"/><use xlink:href="#f" x="30" y="510" stroke="rgba(227, 3, 137, 1)"/><use xlink:href="#d" x="30" y="570" stroke="rgba(237, 15, 106, 1)"/><use xlink:href="#g" x="90" y="30" stroke="rgba(237, 15, 106, 1)"/><use xlink:href="#f" x="90" y="90" stroke="rgba(237, 15, 106, 1)"/><use xlink:href="#g" x="90" y="150" stroke="#1c538e"/><use xlink:href="#h" x="90" y="210" stroke="rgba(227, 3, 137, 1)"/><use xlink:href="#f" x="90" y="270" stroke="rgba(227, 3, 137, 1)"/><use xlink:href="#d" x="90" y="330" stroke="rgba(237, 15, 106, 1)"/><use xlink:href="#g" x="90" y="390" stroke="rgba(237, 15, 106, 1)"/><use xlink:href="#f" x="90" y="450" stroke="rgba(227, 3, 137, 1)"/><use xlink:href="#g" x="90" y="510" stroke="#1c538e"/><use xlink:href="#h" x="90" y="570" stroke="rgba(227, 3, 137, 1)"/><use xlink:href="#e" x="150" y="30" stroke="rgba(237, 15, 106, 1)"/><use xlink:href="#f" x="150" y="90" stroke="rgba(227, 3, 137, 1)"/><use xlink:href="#f" x="150" y="150" stroke="rgba(237, 15, 106, 1)"/><use xlink:href="#f" x="150" y="210" stroke="rgba(237, 15, 106, 1)"/><use xlink:href="#i" x="150" y="270" stroke="rgba(237, 15, 106, 1)" stroke-width="3"/><use xlink:href="#g" x="150" y="330" stroke="#1c538e"/><use xlink:href="#g" x="150" y="390" stroke="rgba(227, 3, 137, 1)"/><use xlink:href="#f" x="150" y="450" stroke="rgba(227, 3, 137, 1)"/><use xlink:href="#g" x="150" y="510" stroke="rgba(237, 15, 106, 1)"/><use xlink:href="#f" x="150" y="570" stroke="rgba(227, 3, 137, 1)"/><use xlink:href="#d" x="210" y="30" stroke="rgba(237, 15, 106, 1)"/><use xlink:href="#g" x="210" y="90" stroke="#1c538e"/><use xlink:href="#g" x="210" y="150" stroke="#1c538e"/><use xlink:href="#g" x="210" y="210" stroke="rgba(227, 3, 137, 1)"/><use xlink:href="#e" x="210" y="270" stroke="#1c538e"/><use xlink:href="#g" x="210" y="330" stroke="rgba(227, 3, 137, 1)"/><use xlink:href="#g" x="210" y="390" stroke="#1c538e"/><use xlink:href="#f" x="210" y="450" stroke="rgba(237, 15, 106, 1)"/><use xlink:href="#f" x="210" y="510" stroke="rgba(227, 3, 137, 1)"/><use xlink:href="#g" x="210" y="570" stroke="rgba(237, 15, 106, 1)"/><use xlink:href="#g" x="270" y="30" stroke="rgba(237, 15, 106, 1)"/><use xlink:href="#g" x="270" y="90" stroke="rgba(227, 3, 137, 1)"/><use xlink:href="#e" x="270" y="150" stroke="rgba(237, 15, 106, 1)"/><use xlink:href="#g" x="270" y="210" stroke="#1c538e"/><use xlink:href="#g" x="270" y="270" stroke="#1c538e"/><use xlink:href="#g" x="270" y="330" stroke="rgba(227, 3, 137, 1)"/><use xlink:href="#g" x="270" y="390" stroke="#1c538e"/><use xlink:href="#g" x="270" y="450" stroke="#1c538e"/><use xlink:href="#d" x="270" y="510" stroke="#1c538e"/><use xlink:href="#g" x="270" y="570" stroke="#1c538e"/><use xlink:href="#i" x="330" y="30" stroke="rgba(237, 15, 106, 1)" stroke-width="3"/><use xlink:href="#h" x="330" y="90" stroke="rgba(227, 3, 137, 1)"/><use xlink:href="#e" x="330" y="150" stroke="rgba(237, 15, 106, 1)"/><use xlink:href="#e" x="330" y="210" stroke="#1c538e"/><use xlink:href="#g" x="330" y="270" stroke="rgba(237, 15, 106, 1)"/><use xlink:href="#f" x="330" y="330" stroke="rgba(227, 3, 137, 1)"/><use xlink:href="#h" x="330" y="390" stroke="rgba(227, 3, 137, 1)"/><use xlink:href="#i" x="330" y="450" stroke="#1c538e" stroke-width="3"/><use xlink:href="#e" x="330" y="510" stroke="rgba(237, 15, 106, 1)"/><use xlink:href="#d" x="330" y="570" stroke="rgba(227, 3, 137, 1)"/><use xlink:href="#h" x="390" y="30" stroke="rgba(227, 3, 137, 1)"/><use xlink:href="#d" x="390" y="90" stroke="#1c538e"/><use xlink:href="#g" x="390" y="150" stroke="rgba(227, 3, 137, 1)"/><use xlink:href="#i" x="390" y="210" stroke="rgba(237, 15, 106, 1)" stroke-width="3"/><use xlink:href="#h" x="390" y="270" stroke="rgba(237, 15, 106, 1)"/><use xlink:href="#g" x="390" y="330" stroke="rgba(227, 3, 137, 1)"/><use xlink:href="#h" x="390" y="390" stroke="rgba(227, 3, 137, 1)"/><use xlink:href="#h" x="390" y="450" stroke="rgba(237, 15, 106, 1)"/><use xlink:href="#f" x="390" y="510" stroke="#1c538e"/><use xlink:href="#h" x="390" y="570" stroke="#1c538e"/><use xlink:href="#h" x="450" y="30" stroke="rgba(237, 15, 106, 1)"/><use xlink:href="#g" x="450" y="90" stroke="#1c538e"/><use xlink:href="#i" x="450" y="150" stroke="rgba(237, 15, 106, 1)" stroke-width="3"/><use xlink:href="#f" x="450" y="210" stroke="rgba(227, 3, 137, 1)"/><use xlink:href="#h" x="450" y="270" stroke="rgba(237, 15, 106, 1)"/><use xlink:href="#g" x="450" y="330" stroke="rgba(237, 15, 106, 1)"/><use xlink:href="#e" x="450" y="390" stroke="rgba(227, 3, 137, 1)"/><use xlink:href="#g" x="450" y="450" stroke="#1c538e"/><use xlink:href="#f" x="450" y="510" stroke="rgba(227, 3, 137, 1)"/><use xlink:href="#g" x="450" y="570" stroke="#1c538e"/><use xlink:href="#h" x="510" y="30" stroke="#1c538e"/><use xlink:href="#e" x="510" y="90" stroke="rgba(237, 15, 106, 1)"/><use xlink:href="#g" x="510" y="150" stroke="rgba(227, 3, 137, 1)"/><use xlink:href="#f" x="510" y="210" stroke="#1c538e"/><use xlink:href="#g" x="510" y="270" stroke="#1c538e"/><use xlink:href="#e" x="510" y="330" stroke="rgba(227, 3, 137, 1)"/><use xlink:href="#g" x="510" y="390" stroke="rgba(227, 3, 137, 1)"/><use xlink:href="#h" x="510" y="450" stroke="#1c538e"/><use xlink:href="#g" x="510" y="510" stroke="rgba(237, 15, 106, 1)"/><use xlink:href="#f" x="510" y="570" stroke="rgba(237, 15, 106, 1)"/><use xlink:href="#g" x="570" y="30" stroke="#1c538e"/><use xlink:href="#g" x="570" y="90" stroke="rgba(227, 3, 137, 1)"/><use xlink:href="#f" x="570" y="150" stroke="#1c538e"/><use xlink:href="#h" x="570" y="210" stroke="rgba(237, 15, 106, 1)"/><use xlink:href="#f" x="570" y="270" stroke="#1c538e"/><use xlink:href="#h" x="570" y="330" stroke="#1c538e"/><use xlink:href="#f" x="570" y="390" stroke="rgba(227, 3, 137, 1)"/><use xlink:href="#f" x="570" y="450" stroke="rgba(237, 15, 106, 1)"/><use xlink:href="#d" x="570" y="510" stroke="#1c538e"/><use xlink:href="#h" x="570" y="570" stroke="rgba(227, 3, 137, 1)"/><use xlink:href="#f" x="630" y="30" stroke="#1c538e"/><use xlink:href="#g" x="630" y="90" stroke="rgba(237, 15, 106, 1)"/><use xlink:href="#e" x="630" y="150" stroke="#1c538e"/><use xlink:href="#f" x="630" y="210" stroke="#1c538e"/><use xlink:href="#f" x="630" y="270" stroke="rgba(227, 3, 137, 1)"/><use xlink:href="#i" x="630" y="330" stroke="#1c538e" stroke-width="3"/><use xlink:href="#h" x="630" y="390" stroke="rgba(227, 3, 137, 1)"/><use xlink:href="#f" x="630" y="450" stroke="rgba(237, 15, 106, 1)"/><use xlink:href="#h" x="630" y="510" stroke="#1c538e"/><use xlink:href="#e" x="630" y="570" stroke="rgba(237, 15, 106, 1)"/><use xlink:href="#d" x="690" y="30" stroke="#1c538e"/><use xlink:href="#e" x="690" y="90" stroke="rgba(237, 15, 106, 1)"/><use xlink:href="#f" x="690" y="150" stroke="#1c538e"/><use xlink:href="#g" x="690" y="210" stroke="#1c538e"/><use xlink:href="#h" x="690" y="270" stroke="rgba(227, 3, 137, 1)"/><use xlink:href="#e" x="690" y="330" stroke="rgba(227, 3, 137, 1)"/><use xlink:href="#h" x="690" y="390" stroke="rgba(227, 3, 137, 1)"/><use xlink:href="#g" x="690" y="450" stroke="rgba(227, 3, 137, 1)"/><use xlink:href="#g" x="690" y="510" stroke="rgba(237, 15, 106, 1)"/><use xlink:href="#h" x="690" y="570" stroke="rgba(237, 15, 106, 1)"/></symbol></svg>